HIERARCHY
ROOT Hips
{
	OFFSET 0.000000 0.000000 0.000000
	CHANNELS 6 Xposition Yposition Zposition Xrotation Yrotation Zrotation
	JOINT LeftUpLeg_virtual
	{
		OFFSET 0.000000 0.000000 0.000000
		CHANNELS 3 Xrotation Yrotation Zrotation
		JOINT LeftUpLeg
		{
			OFFSET 13.026900 -6.336304 -1.092800
			CHANNELS 3 Xrotation Yrotation Zrotation
			JOINT LeftLeg
			{
				OFFSET 0.524474 -46.096886 9.782700
				CHANNELS 3 Xrotation Yrotation Zrotation
				JOINT LeftFoot
				{
					OFFSET -0.524474 -53.427422 -12.948200
					CHANNELS 3 Xrotation Yrotation Zrotation
					JOINT LeftToeBase
					{
						OFFSET 0.192200 -14.009700 16.364100
						CHANNELS 3 Xrotation Yrotation Zrotation
						JOINT LeftToe_End
						{
							OFFSET -1.784700 -0.561700 9.474800
							CHANNELS 3 Xrotation Yrotation Zrotation
							End Site
							{
								OFFSET 0 0 0
							}
						}
					}
				}
			}
		}
	}
	JOINT RightUpLeg_virtual
	{
		OFFSET 0.000000 0.000000 0.000000
		CHANNELS 3 Xrotation Yrotation Zrotation
		JOINT RightUpLeg
		{
			OFFSET -12.883000 -6.336304 -1.092800
			CHANNELS 3 Xrotation Yrotation Zrotation
			JOINT RightLeg
			{
				OFFSET -0.524587 -46.096825 9.782800
				CHANNELS 3 Xrotation Yrotation Zrotation
				JOINT RightFoot
				{
					OFFSET 0.524587 -53.427383 -12.948300
					CHANNELS 3 Xrotation Yrotation Zrotation
					JOINT RightToeBase
					{
						OFFSET -0.192200 -14.009700 16.364100
						CHANNELS 3 Xrotation Yrotation Zrotation
						JOINT RightToe_End
						{
							OFFSET 1.784700 -0.561700 9.474800
							CHANNELS 3 Xrotation Yrotation Zrotation
							End Site
							{
								OFFSET 0 0 0
							}
						}
					}
				}
			}
		}
	}
	JOINT Spine_virtual
	{
		OFFSET 0.000000 0.000000 0.000000
		CHANNELS 3 Xrotation Yrotation Zrotation
		JOINT Spine
		{
			OFFSET 0.072000 7.257294 -0.789700
			CHANNELS 3 Xrotation Yrotation Zrotation
			JOINT Spine1
			{
				OFFSET 0.000000 12.508769 -0.658067
				CHANNELS 3 Xrotation Yrotation Zrotation
				JOINT Spine1_split
				{
					OFFSET 0.000000 12.508769 -0.658067
					CHANNELS 3 Xrotation Yrotation Zrotation
					JOINT Spine2
					{
						OFFSET 0.000000 12.508769 -0.658067
						CHANNELS 3 Xrotation Yrotation Zrotation
						JOINT Neck_virtual
						{
							OFFSET 0.000000 0.000000 0.000000
							CHANNELS 3 Xrotation Yrotation Zrotation
							JOINT Neck
							{
								OFFSET 0.000000 14.033295 7.520400
								CHANNELS 3 Xrotation Yrotation Zrotation
								JOINT Head
								{
									OFFSET 0.000000 8.198502 5.703100
									CHANNELS 3 Xrotation Yrotation Zrotation
									JOINT HeadTop_End
									{
										OFFSET 0.000000 17.760803 13.332701
										CHANNELS 3 Xrotation Yrotation Zrotation
										End Site
										{
											OFFSET 0 0 0
										}
									}
								}
							}
						}
						JOINT LeftShoulder_virtual
						{
							OFFSET 0.000000 0.000000 0.000000
							CHANNELS 3 Xrotation Yrotation Zrotation
							JOINT LeftShoulder
							{
								OFFSET 6.292450 5.785301 -0.669000
								CHANNELS 3 Xrotation Yrotation Zrotation
								JOINT LeftShoulder_split
								{
									OFFSET 6.292450 5.785301 -0.669000
									CHANNELS 3 Xrotation Yrotation Zrotation
									JOINT LeftArm
									{
										OFFSET 13.907140 -6.093903 1.965100
										CHANNELS 3 Xrotation Yrotation Zrotation
										JOINT LeftForeArm
										{
											OFFSET 34.140198 0.000000 0.000000
											CHANNELS 3 Xrotation Yrotation Zrotation
											JOINT LeftHand
											{
												OFFSET 40.960209 0.000000 0.000000
												CHANNELS 3 Xrotation Yrotation Zrotation
												End Site
												{
													OFFSET 0 0 0
												}
											}
										}
									}
								}
							}
						}
						JOINT RightShoulder_virtual
						{
							OFFSET 0.000000 0.000000 0.000000
							CHANNELS 3 Xrotation Yrotation Zrotation
							JOINT RightShoulder
							{
								OFFSET -6.292450 5.785301 -0.669000
								CHANNELS 3 Xrotation Yrotation Zrotation
								JOINT RightShoulder_split
								{
									OFFSET -6.292450 5.785301 -0.669000
									CHANNELS 3 Xrotation Yrotation Zrotation
									JOINT RightArm
									{
										OFFSET -13.907140 -6.093903 1.965100
										CHANNELS 3 Xrotation Yrotation Zrotation
										JOINT RightForeArm
										{
											OFFSET -34.140198 0.000000 0.000000
											CHANNELS 3 Xrotation Yrotation Zrotation
											JOINT RightHand
											{
												OFFSET -40.960209 0.000000 0.000000
												CHANNELS 3 Xrotation Yrotation Zrotation
												End Site
												{
													OFFSET 0 0 0
												}
											}
										}
									}
								}
							}
						}
					}
				}
			}
		}
	}
}
MOTION
Frames: 7
Frame Time: 0.03333333
2.882788 108.195053 2.878986 0.000000 0.000000 0.000000 -10.356069 11.489268 -3.009257 -37.888528 25.625956 15.596221 39.557041 4.696220 5.061923 5.642147 -15.749892 -2.338176 -5.740049 1.821471 0.326806 0.000000 0.000000 0.000000 -9.989291 13.321421 -3.219865 -18.741578 -21.680504 -2.314513 27.417298 5.551211 -1.399876 0.708168 4.531548 2.319284 0.809636 -3.268695 -16.685129 0.000000 0.000000 0.000000 -10.158237 15.679256 -4.522354 5.959935 0.619628 5.484813 4.926448 1.028076 0.567056 0.078343 -0.191474 -0.025452 0.000000 0.000000 0.000000 3.963863 4.341310 0.990254 19.242989 7.649701 0.344472 5.303994 -58.029622 -7.074004 0.000000 0.000000 0.000000 3.769394 2.155812 -0.881886 2.596754 4.764216 -9.084670 3.977000 -1.784650 -0.673721 78.981897 -66.007747 5.710989 2.545958 -17.881198 8.828895 0.000000 0.000000 0.000000 4.999032 2.679884 0.692696 -3.163445 -9.304835 5.535506 6.651561 -1.967671 0.838796 10.648542 43.014595 59.978077 -1.136647 12.017034 -7.928355 0.000000 0.000000 0.000000 
2.896445 108.187065 2.885860 0.000000 0.000000 0.000000 -10.349912 11.437695 -2.977036 -37.857925 25.694342 15.604172 39.552341 4.690107 5.046752 5.612600 -15.740318 -2.343373 -5.735434 1.819847 0.336852 0.000000 0.000000 0.000000 -9.987070 13.255489 -3.186149 -18.817771 -21.520099 -2.334629 27.452455 5.548004 -1.402954 0.717059 4.506361 2.315171 0.836438 -3.275214 -16.640779 0.000000 0.000000 0.000000 -10.157024 15.621725 -4.489264 5.946378 0.624561 5.483211 4.913884 1.038090 0.561798 0.078531 -0.190644 -0.025651 0.000000 0.000000 0.000000 3.944501 4.353628 0.987422 19.252796 7.656753 0.319350 5.286948 -58.016979 -7.104180 0.000000 0.000000 0.000000 3.755022 2.165394 -0.885483 2.593335 4.759996 -9.126027 4.003743 -1.771616 -0.670272 78.822910 -65.942061 5.618377 2.606987 -17.971816 8.878979 0.000000 0.000000 0.000000 4.981852 2.691927 0.690354 -3.172681 -9.292692 5.485798 6.657856 -1.964316 0.852399 10.646212 43.010108 59.969723 -1.123178 12.016373 -7.914307 0.000000 0.000000 0.000000 
2.905170 108.171333 2.890953 0.000000 0.000000 0.000000 -10.346348 11.386774 -2.939655 -37.824778 25.743598 15.604906 39.547946 4.682870 5.029137 5.587964 -15.725850 -2.337729 -5.734716 1.820854 0.339314 0.000000 0.000000 0.000000 -9.989072 13.191343 -3.146889 -18.911764 -21.354373 -2.367405 27.513747 5.556158 -1.403645 0.735061 4.503864 2.319280 0.835070 -3.277270 -16.597578 0.000000 0.000000 0.000000 -10.164319 15.574453 -4.448118 5.935038 0.627205 5.473757 4.903534 1.042994 0.557867 0.078690 -0.189861 -0.026474 0.000000 0.000000 0.000000 3.925983 4.361240 0.985187 19.281887 7.659839 0.293951 5.270642 -57.979727 -7.153665 0.000000 0.000000 0.000000 3.745173 2.169281 -0.887671 2.587815 4.751213 -9.163803 4.040614 -1.761775 -0.665151 78.564265 -65.877598 5.442000 2.668632 -18.069402 8.927875 0.000000 0.000000 0.000000 4.968291 2.699606 0.690233 -3.177573 -9.272415 5.461477 6.665206 -1.962661 0.860499 10.688480 42.995330 59.912008 -1.091872 12.058259 -7.907234 0.000000 0.000000 0.000000 
2.907840 108.145836 2.893204 0.000000 0.000000 0.000000 -10.346641 11.341957 -2.899132 -37.797106 25.771475 15.602672 39.552662 4.671314 5.010370 5.572584 -15.708962 -2.322857 -5.737991 1.825006 0.333060 0.000000 0.000000 0.000000 -9.995106 13.139081 -3.104558 -19.019294 -21.200468 -2.415494 27.601208 5.578460 -1.401189 0.756729 4.529929 2.338485 0.806739 -3.273997 -16.563161 0.000000 0.000000 0.000000 -10.180406 15.542756 -4.401268 5.925934 0.627543 5.456418 4.896300 1.042843 0.555520 0.078902 -0.189943 -0.027337 0.000000 0.000000 0.000000 3.908942 4.364064 0.983670 19.332535 7.656852 0.272004 5.247958 -57.932435 -7.217552 0.000000 0.000000 0.000000 3.739519 2.168347 -0.888397 2.580863 4.739742 -9.193862 4.086824 -1.759479 -0.658199 78.245220 -65.819733 5.207506 2.729167 -18.165218 8.973304 0.000000 0.000000 0.000000 4.958905 2.703144 0.692371 -3.178757 -9.249589 5.462445 6.674407 -1.956788 0.863270 10.770141 42.971906 59.819056 -1.042809 12.130308 -7.906601 0.000000 0.000000 0.000000 
2.903731 108.113510 2.894676 0.000000 0.000000 0.000000 -10.350149 11.309882 -2.858262 -37.780508 25.780139 15.600878 39.570865 4.656335 4.990696 5.566417 -15.691436 -2.299981 -5.741301 1.832054 0.319002 0.000000 0.000000 0.000000 -10.002872 13.105689 -3.063351 -19.126679 -21.070416 -2.475464 27.707415 5.609944 -1.394680 0.775520 4.580933 2.376902 0.761559 -3.265849 -16.542594 0.000000 0.000000 0.000000 -10.204116 15.527907 -4.353304 5.918804 0.625493 5.433943 4.891924 1.039288 0.555291 0.078713 -0.189771 -0.028351 0.000000 0.000000 0.000000 3.893716 4.363244 0.983361 19.404289 7.646345 0.254833 5.211157 -57.885969 -7.293252 0.000000 0.000000 0.000000 3.736518 2.164737 -0.887212 2.573393 4.727604 -9.214069 4.136712 -1.764450 -0.652943 77.910793 -65.770207 4.947386 2.786325 -18.252212 9.013343 0.000000 0.000000 0.000000 4.953843 2.704091 0.696413 -3.177585 -9.229046 5.487622 6.686304 -1.945405 0.861847 10.883383 42.939972 59.701010 -0.976944 12.220546 -7.911015 0.000000 0.000000 0.000000 
2.894599 108.078171 2.893093 0.000000 0.000000 0.000000 -10.355310 11.294770 -2.820960 -37.776386 25.774842 15.602449 39.598739 4.639231 4.971085 5.567991 -15.673536 -2.272267 -5.738448 1.841642 0.299046 0.000000 0.000000 0.000000 -10.009984 13.098579 -3.027209 -19.219690 -20.968078 -2.539033 27.818539 5.641516 -1.383384 0.785000 4.644816 2.426869 0.716271 -3.254938 -16.536429 0.000000 0.000000 0.000000 -10.232096 15.527037 -4.309279 5.912809 0.621340 5.410236 4.890091 1.034103 0.557607 0.078171 -0.189464 -0.028067 0.000000 0.000000 0.000000 3.881248 4.360587 0.984836 19.493353 7.627086 0.241794 5.151597 -57.852570 -7.379886 0.000000 0.000000 0.000000 3.734533 2.160726 -0.883714 2.566826 4.718670 -9.224898 4.183502 -1.778651 -0.654230 77.597916 -65.725442 4.694502 2.836745 -18.326733 9.045249 0.000000 0.000000 0.000000 4.952094 2.704017 0.702315 -3.174871 -9.214538 5.532871 6.697468 -1.928754 0.859183 11.022525 42.897273 59.563238 -0.898462 12.324384 -7.918623 0.000000 0.000000 0.000000 
2.882107 108.044952 2.888920 0.000000 0.000000 0.000000 -10.361006 11.301515 -2.790576 -37.786092 25.761599 15.608273 39.628563 4.621799 4.952592 5.572893 -15.657001 -2.245296 -5.728853 1.852603 0.277184 0.000000 0.000000 0.000000 -10.012642 13.119229 -2.999198 -19.287199 -20.891515 -2.596573 27.913796 5.662726 -1.367155 0.778072 4.704811 2.477575 0.685444 -3.243815 -16.541625 0.000000 0.000000 0.000000 -10.257047 15.541921 -4.274720 5.905996 0.615074 5.389707 4.888642 1.029611 0.562194 0.077391 -0.188509 -0.027759 0.000000 0.000000 0.000000 3.871971 4.358291 0.988536 19.591781 7.599626 0.229519 5.066901 -57.835344 -7.474197 0.000000 0.000000 0.000000 3.732181 2.158623 -0.877651 2.562662 4.716385 -9.229869 4.214186 -1.788894 -0.669052 77.331586 -65.680588 4.474625 2.875677 -18.388800 9.066937 0.000000 0.000000 0.000000 4.951185 2.704686 0.709874 -3.171896 -9.207216 5.592169 6.707349 -1.904923 0.861285 11.184590 42.842601 59.408780 -0.811505 12.437974 -7.927117 0.000000 0.000000 0.000000 
